<svg class="animated" id="freepik_stories-credit-card" xmlns="http://www.w3.org/2000/svg" viewBox="0 0 500 500" version="1.1" xmlns:xlink="http://www.w3.org/1999/xlink" xmlns:svgjs="http://svgjs.com/svgjs"><style>svg#freepik_stories-credit-card:not(.animated) .animable {opacity: 0;}svg#freepik_stories-credit-card.animated #freepik--Character--inject-20 {animation: 1s 1 forwards linear slideLeft,6s Infinite  linear shake;animation-delay: 0s,1s;}            @keyframes slideLeft {                0% {                    opacity: 0;                    transform: translateX(-30px);                }                100% {                    opacity: 1;                    transform: translateX(0);                }            }                    @keyframes shake {                10%, 90% {                    transform: translate3d(-1px, 0, 0);                  }                  20%, 80% {                    transform: translate3d(2px, 0, 0);                  }                  30%, 50%, 70% {                    transform: translate3d(-4px, 0, 0);                  }                  40%, 60% {                    transform: translate3d(4px, 0, 0);                  }            }        </style><g id="freepik--background-complete--inject-20" class="animable" style="transform-origin: 250.009px 208.447px;"><path d="M410,72.07c-56.17,0-56.26,79.87,0,79.87S466.29,72.07,410,72.07Z" style="fill: rgb(235, 235, 235); transform-origin: 410.023px 112.005px;" id="el330v4ohipof" class="animable"></path><path d="M444.18,119.49c-3,13.74-14.38,25.66-34.16,25.66-46.68,0-46.61-66.29,0-66.29.31,0,.61,0,.92,0-43.87.8-43.65,63.58.86,63.58C430,142.46,440.78,132,444.18,119.49Z" style="fill: rgb(219, 219, 219); transform-origin: 409.608px 112.005px;" id="elrgb04n6gj2" class="animable"></path><path d="M410.36,87.6a1.42,1.42,0,0,1,1.46,1.33v2.23a20.88,20.88,0,0,1,10.82,3.89c.54.39.85.72.85,1.28a1.5,1.5,0,0,1-1.58,1.39,1.6,1.6,0,0,1-1.1-.39,18.07,18.07,0,0,0-9.11-3.61v15.56c9.24,1.78,13.13,5,13.13,10.4,0,5.9-5.41,10.06-13,10.29v4.33a1.46,1.46,0,0,1-2.91,0v-4.39a24,24,0,0,1-13.68-5.39,1.43,1.43,0,0,1-.67-1.17,1.53,1.53,0,0,1,1.52-1.39,1.6,1.6,0,0,1,1.1.39A20.43,20.43,0,0,0,409,127.41V111.56c-9.12-1.83-12.89-4.89-12.89-10.45s5.35-9.9,12.77-10.06V88.93A1.41,1.41,0,0,1,410.36,87.6ZM409,108.73V93.55c-5.9.11-9.79,3.34-9.79,7.34C399.24,104.67,401.19,107,409,108.73Zm2.67,3.39v15.35c6.08-.12,10-3.34,10-7.57C421.73,116.07,419.6,113.73,411.7,112.12Z" style="fill: rgb(219, 219, 219); transform-origin: 409.7px 111.619px;" id="ellja1ickqj6" class="animable"></path><path d="M116.44,134.4c-42,0-42.07,59.72,0,59.72S158.5,134.4,116.44,134.4Z" style="fill: rgb(235, 235, 235); transform-origin: 116.451px 164.26px;" id="elyvzt1sacrhj" class="animable"></path><path d="M142,169.86C139.74,180.13,131.22,189,116.43,189c-34.9,0-34.85-49.56,0-49.56h.69c-32.8.6-32.64,47.54.64,47.54C131.34,187,139.43,179.17,142,169.86Z" style="fill: rgb(219, 219, 219); transform-origin: 116.137px 164.22px;" id="el5u6d2ta6bei" class="animable"></path><path d="M116.69,146a1.06,1.06,0,0,1,1.09,1v1.66a15.68,15.68,0,0,1,8.09,2.91c.4.29.63.54.63,1a1.12,1.12,0,0,1-1.18,1,1.18,1.18,0,0,1-.82-.29,13.46,13.46,0,0,0-6.81-2.7v11.63c6.9,1.33,9.81,3.7,9.81,7.78,0,4.4-4,7.52-9.72,7.69v3.24a1.09,1.09,0,0,1-2.18,0v-3.28a17.82,17.82,0,0,1-10.22-4,1,1,0,0,1-.5-.87,1.14,1.14,0,0,1,1.13-1,1.24,1.24,0,0,1,.82.29,15.3,15.3,0,0,0,8.86,3.79V163.93c-6.82-1.37-9.63-3.66-9.63-7.82s4-7.4,9.54-7.52V147A1.06,1.06,0,0,1,116.69,146Zm-1,15.8V150.46c-4.41.08-7.32,2.49-7.32,5.49C108.37,158.77,109.83,160.52,115.69,161.81Zm2,2.53v11.48c4.54-.08,7.5-2.5,7.5-5.66C125.19,167.3,123.59,165.55,117.69,164.34Z" style="fill: rgb(219, 219, 219); transform-origin: 116.19px 164.005px;" id="elp7cqzd71mqo" class="animable"></path><path d="M79.71,269.16c-50.57,9.07-37.22,84,13.44,74.9S130.37,260.07,79.71,269.16Z" style="fill: rgb(219, 219, 219); transform-origin: 86.4487px 306.611px;" id="el1pghcom7ohc" class="animable"></path><path d="M84.46,268.3C36.26,277,49.62,351.87,97.9,343.21S132.74,259.64,84.46,268.3Z" style="fill: rgb(235, 235, 235); transform-origin: 91.1967px 305.755px;" id="el5mwpbc98wma" class="animable"></path><path d="M121.75,307.52c-.26,13.35-8,26.28-25,29.32-40.06,7.19-51.15-55-11.15-62.17.26,0,.52-.09.78-.12-37.51,7.51-26.76,66.35,11.44,59.5C113.4,331.25,120.92,319.73,121.75,307.52Z" style="fill: rgb(219, 219, 219); transform-origin: 91.1653px 305.984px;" id="elodgt4iu9ifb" class="animable"></path><path d="M87.36,282.82a1.28,1.28,0,0,1,1.47,1l.38,2.09a17.39,17.39,0,0,1,9.94,2c.53.29.85.55.94,1.07A1.36,1.36,0,0,1,99,290.53a1.29,1.29,0,0,1-1-.2,15.14,15.14,0,0,0-8.43-2L92.15,303c8.23.24,12.1,2.62,13,7.73,1,5.53-3,10.27-9.43,11.65l.73,4.06a1.27,1.27,0,1,1-2.5.45l-.74-4.12a19.88,19.88,0,0,1-12.64-3,1.33,1.33,0,0,1,.3-2.53,1.33,1.33,0,0,1,1,.2,17.13,17.13,0,0,0,11,2.92L90.24,305.5c-8.13-.32-11.87-2.61-12.81-7.82s2.92-10.11,9.26-11.4l-.36-2A1.29,1.29,0,0,1,87.36,282.82Zm2.41,20L87.21,288.6c-5,1-7.83,4.64-7.16,8.39C80.69,300.54,82.75,302.43,89.77,302.84Zm2.86,2.77L95.21,320c5.2-1,8.05-4.67,7.34-8.64C101.9,307.77,99.68,305.9,92.63,305.61Z" style="fill: rgb(219, 219, 219); transform-origin: 91.2962px 305.368px;" id="elxk9mud2bxup" class="animable"></path><path d="M404.76,257.48c-37.81,6.79-27.82,62.8,10.05,56S442.64,250.68,404.76,257.48Z" style="fill: rgb(219, 219, 219); transform-origin: 409.799px 285.48px;" id="elaamfk4647k" class="animable"></path><path d="M408.31,256.84c-36,6.47-26,62.49,10.05,56S444.41,250.37,408.31,256.84Z" style="fill: rgb(235, 235, 235); transform-origin: 413.353px 284.841px;" id="eltzepahrvat" class="animable"></path><path d="M436.19,286.16c-.19,10-6,19.65-18.69,21.93-29.95,5.37-38.24-41.12-8.34-46.48l.59-.1c-28,5.62-20,49.61,8.55,44.49C430,303.91,435.57,295.29,436.19,286.16Z" style="fill: rgb(219, 219, 219); transform-origin: 413.324px 285.015px;" id="el8s2tjpp0g2q" class="animable"></path><path d="M415.51,267.67a1,1,0,0,1,.83,1.06l-.19,1.57a12.87,12.87,0,0,1,6.68,3.58,1.11,1.11,0,0,1,.45,1,1,1,0,0,1-1.14.86,1,1,0,0,1-.68-.36,11.24,11.24,0,0,0-5.6-3.25l-1.29,11c5.83,2,8.08,4.51,7.63,8.36-.49,4.17-4.34,6.71-9.28,6.29l-.36,3.07a1,1,0,0,1-1.05.83,1,1,0,0,1-.84-1.06l.37-3.1a14.91,14.91,0,0,1-8.4-4.86,1,1,0,0,1-.34-.88,1,1,0,0,1,1.1-.86,1,1,0,0,1,.68.35,12.8,12.8,0,0,0,7.25,4.49l1.32-11.22c-5.75-2-7.94-4.44-7.47-8.37s4.28-6.6,9.09-6.15l.18-1.5A1,1,0,0,1,415.51,267.67Zm-2.63,14.85,1.27-10.74c-3.83-.37-6.62,1.61-6.95,4.45C406.89,278.9,408,280.7,412.88,282.52Zm1.45,2.6L413.05,296c3.95.38,6.77-1.6,7.12-4.59C420.49,288.68,419.31,286.86,414.33,285.12Z" style="fill: rgb(219, 219, 219); transform-origin: 412.789px 284.675px;" id="el5djya8akoa3" class="animable"></path></g><g id="freepik--Floor--inject-20" class="animable" style="transform-origin: 247.97px 393.002px;"><path d="M47,393c128.75-.61,273.19-.61,401.94,0-128.75.62-273.19.61-401.94,0Z" style="fill: rgb(38, 50, 56); transform-origin: 247.97px 393.002px;" id="elsv6p69v3ha" class="animable"></path></g><g id="freepik--Shadow--inject-20" class="animable" style="transform-origin: 250px 443.07px;"><ellipse cx="250" cy="443.07" rx="198.97" ry="27.22" style="fill: rgb(235, 235, 235); transform-origin: 250px 443.07px;" id="elkwa4bwggdg" class="animable"></ellipse></g><g id="freepik--Device--inject-20" class="animable" style="transform-origin: 308.69px 237.72px;"><rect x="214.53" y="102.99" width="166.32" height="326.49" style="fill: rgb(55, 71, 79); transform-origin: 297.69px 266.235px;" id="el64pbwbudaeu" class="animable"></rect><rect x="380.85" y="126.02" width="22" height="257.92" style="fill: rgb(69, 90, 100); transform-origin: 391.85px 254.98px;" id="el17c1hiows9m" class="animable"></rect><rect x="380.85" y="126.02" width="5.88" height="257.92" style="fill: rgb(38, 50, 56); transform-origin: 383.79px 254.98px;" id="elzgxvijrew7f" class="animable"></rect><rect x="235.71" y="302.44" width="35.62" height="15.87" style="fill: rgb(235, 235, 235); transform-origin: 253.52px 310.375px;" id="elf8akdiwnhyu" class="animable"></rect><rect x="279.88" y="302.44" width="35.62" height="15.87" style="fill: rgb(235, 235, 235); transform-origin: 297.69px 310.375px;" id="elpz3cvtzn6i8" class="animable"></rect><rect x="324.06" y="302.44" width="35.62" height="15.87" style="fill: rgb(235, 235, 235); transform-origin: 341.87px 310.375px;" id="elrffgdebzkp8" class="animable"></rect><rect x="235.71" y="324.98" width="35.62" height="15.87" style="fill: rgb(235, 235, 235); transform-origin: 253.52px 332.915px;" id="elolzb89l0wyi" class="animable"></rect><rect x="279.88" y="324.98" width="35.62" height="15.87" style="fill: rgb(235, 235, 235); transform-origin: 297.69px 332.915px;" id="elgzcg8k9cvsr" class="animable"></rect><rect x="324.06" y="324.98" width="35.62" height="15.87" style="fill: rgb(235, 235, 235); transform-origin: 341.87px 332.915px;" id="elb7gz31zrb3k" class="animable"></rect><rect x="235.71" y="347.52" width="35.62" height="15.87" style="fill: rgb(235, 235, 235); transform-origin: 253.52px 355.455px;" id="el2kwbdisekvm" class="animable"></rect><rect x="279.88" y="347.52" width="35.62" height="15.87" style="fill: rgb(235, 235, 235); transform-origin: 297.69px 355.455px;" id="elf6m4mq8mf1r" class="animable"></rect><rect x="324.06" y="347.52" width="35.62" height="15.87" style="fill: rgb(235, 235, 235); transform-origin: 341.87px 355.455px;" id="elwq73x1srsz" class="animable"></rect><rect x="235.71" y="370.06" width="35.62" height="15.87" style="fill: rgb(235, 235, 235); transform-origin: 253.52px 377.995px;" id="eli59dagxyvg" class="animable"></rect><rect x="279.88" y="370.06" width="35.62" height="15.87" style="fill: rgb(235, 235, 235); transform-origin: 297.69px 377.995px;" id="el2a0eru88j5j" class="animable"></rect><rect x="324.06" y="370.06" width="35.62" height="15.87" style="fill: rgb(235, 235, 235); transform-origin: 341.87px 377.995px;" id="elvp8590s9fza" class="animable"></rect><rect x="235.71" y="392.6" width="35.62" height="15.87" style="fill: rgb(38, 50, 56); transform-origin: 253.52px 400.535px;" id="elbidv1kshamc" class="animable"></rect><rect x="279.88" y="392.6" width="35.62" height="15.87" style="fill: #4833C4; transform-origin: 297.69px 400.535px;" id="elgltglptu5x" class="animable"></rect><rect x="324.06" y="392.6" width="35.62" height="15.87" style="fill: rgb(166, 166, 166); transform-origin: 341.87px 400.535px;" id="el4lgro6op2f" class="animable"></rect><rect x="223.49" y="84.57" width="148.4" height="208.51" style="fill: rgb(38, 50, 56); transform-origin: 297.69px 188.825px;" id="elbynp3wbe6ar" class="animable"></rect><rect x="232.83" y="147.96" width="129.73" height="100.88" style="fill: rgb(255, 255, 255); transform-origin: 297.695px 198.4px;" id="elcqh80a1xge" class="animable"></rect><rect x="247.61" y="45.96" width="100.17" height="75.46" style="fill: rgb(235, 235, 235); transform-origin: 297.695px 83.69px;" id="eloc7fi3meftc" class="animable"></rect><rect x="277.14" y="55.73" width="41.11" height="1.55" style="fill: rgb(199, 199, 199); transform-origin: 297.695px 56.505px;" id="el612d9idzfsq" class="animable"></rect><rect x="287.14" y="60.16" width="21.11" height="1.55" style="fill: rgb(199, 199, 199); transform-origin: 297.695px 60.935px;" id="eln0mluv9hthp" class="animable"></rect><rect x="257.14" y="73.46" width="41.11" height="1.55" style="fill: rgb(199, 199, 199); transform-origin: 277.695px 74.235px;" id="el30e2k5quz76" class="animable"></rect><rect x="257.14" y="77.89" width="51.11" height="1.55" style="fill: rgb(199, 199, 199); transform-origin: 282.695px 78.665px;" id="elbd9ptkamdn5" class="animable"></rect><rect x="257.14" y="82.33" width="26.6" height="1.55" style="fill: rgb(199, 199, 199); transform-origin: 270.44px 83.105px;" id="elt5gzr23o3o" class="animable"></rect><rect x="257.14" y="86.76" width="45.56" height="1.55" style="fill: rgb(199, 199, 199); transform-origin: 279.92px 87.535px;" id="el0mogvftohbor" class="animable"></rect><rect x="257.14" y="91.2" width="50.21" height="1.55" style="fill: rgb(199, 199, 199); transform-origin: 282.245px 91.975px;" id="elapsd80nfrgd" class="animable"></rect><rect x="257.14" y="95.63" width="46" height="1.55" style="fill: rgb(199, 199, 199); transform-origin: 280.14px 96.405px;" id="elhhh2ym23h39" class="animable"></rect><rect x="257.14" y="100.06" width="51.11" height="1.55" style="fill: rgb(199, 199, 199); transform-origin: 282.695px 100.835px;" id="elnxqkjpp4pzn" class="animable"></rect><rect x="257.14" y="104.5" width="47.22" height="1.55" style="fill: rgb(199, 199, 199); transform-origin: 280.75px 105.275px;" id="elcjesjvidskf" class="animable"></rect><rect x="257.14" y="108.93" width="38.57" height="1.55" style="fill: rgb(199, 199, 199); transform-origin: 276.425px 109.705px;" id="elez0bsyzl2jm" class="animable"></rect><rect x="257.14" y="113.37" width="50.65" height="1.55" style="fill: rgb(199, 199, 199); transform-origin: 282.465px 114.145px;" id="el41zatk4afk8" class="animable"></rect><rect x="257.14" y="117.8" width="47.77" height="1.55" style="fill: rgb(199, 199, 199); transform-origin: 281.025px 118.575px;" id="elnfiajj0gi2" class="animable"></rect><rect x="322.76" y="77.89" width="15.49" height="1.55" style="fill: rgb(199, 199, 199); transform-origin: 330.505px 78.665px;" id="elg9eggestiyf" class="animable"></rect><rect x="322.76" y="82.33" width="15.49" height="1.55" style="fill: rgb(199, 199, 199); transform-origin: 330.505px 83.105px;" id="elnsu1ctw5dao" class="animable"></rect><rect x="322.76" y="86.76" width="15.49" height="1.55" style="fill: rgb(199, 199, 199); transform-origin: 330.505px 87.535px;" id="eld3w735eaxcr" class="animable"></rect><rect x="322.76" y="91.2" width="15.49" height="1.55" style="fill: rgb(199, 199, 199); transform-origin: 330.505px 91.975px;" id="ellfpnio6msqf" class="animable"></rect><rect x="322.76" y="95.63" width="15.49" height="1.55" style="fill: rgb(199, 199, 199); transform-origin: 330.505px 96.405px;" id="elzce3jf4awug" class="animable"></rect><rect x="322.76" y="100.06" width="15.49" height="1.55" style="fill: rgb(199, 199, 199); transform-origin: 330.505px 100.835px;" id="elylpot7naxxd" class="animable"></rect><rect x="322.76" y="104.5" width="15.49" height="1.55" style="fill: rgb(199, 199, 199); transform-origin: 330.505px 105.275px;" id="ell9wc1zx0ck" class="animable"></rect><rect x="322.76" y="108.93" width="15.49" height="1.55" style="fill: rgb(199, 199, 199); transform-origin: 330.505px 109.705px;" id="elfbvb3ct6d3" class="animable"></rect><rect x="322.76" y="113.37" width="15.49" height="1.55" style="fill: rgb(199, 199, 199); transform-origin: 330.505px 114.145px;" id="elra79k0wtd49" class="animable"></rect><rect x="322.76" y="117.8" width="15.49" height="1.55" style="fill: rgb(199, 199, 199); transform-origin: 330.505px 118.575px;" id="el2q6lgpuzlik" class="animable"></rect><circle cx="296.92" cy="270.9" r="14.22" style="fill: rgb(166, 166, 166); transform-origin: 296.92px 270.9px;" id="el8q0vt028dsd" class="animable"></circle><rect x="236.35" y="256.69" width="33.15" height="10.98" style="fill: rgb(166, 166, 166); transform-origin: 252.925px 262.18px;" id="elq6zbasxv6hj" class="animable"></rect><rect x="236.35" y="274.14" width="33.15" height="10.98" style="fill: rgb(166, 166, 166); transform-origin: 252.925px 279.63px;" id="elpe47tukionl" class="animable"></rect><rect x="326.53" y="256.69" width="33.15" height="10.98" style="fill: rgb(166, 166, 166); transform-origin: 343.105px 262.18px;" id="el12xjpqv2g3aa" class="animable"></rect><rect x="326.53" y="274.14" width="33.15" height="10.98" style="fill: rgb(166, 166, 166); transform-origin: 343.105px 279.63px;" id="el29lpt4vlo2n" class="animable"></rect><circle cx="297.69" cy="198.4" r="28.6" style="fill: #4833C4; transform-origin: 297.69px 198.4px;" id="elx1fuu4ji1bq" class="animable"></circle><polygon points="293.51 218.92 278.61 203.83 283.61 198.88 292.32 207.7 310.41 179.34 316.34 183.12 293.51 218.92" style="fill: rgb(38, 50, 56); transform-origin: 297.475px 199.13px;" id="elwtdtvm3nuv" class="animable"></polygon></g><g id="freepik--Character--inject-20" class="animable animator-active" style="transform-origin: 204.117px 281.677px;"><path d="M230.62,454.31c-2.15.72-63.54.54-65.88-.95-.88-.55-1.38-9.5-1.67-20.32-.07-2.34-.12-4.75-.15-7.21,0-2.9-.09-5.84-.11-8.7-.07-12.82.11-24.11.11-24.11h40l0,24.11v8.7l-.21,7.21s23.47,10.58,25.86,12.49S232.76,453.61,230.62,454.31Z" style="fill: rgb(173, 99, 89); transform-origin: 197.184px 423.869px;" id="eln57ag2jn07q" class="animable"></path><path d="M230.62,454.31c-2.15.72-63.54.54-65.88-.95-.88-.55-1.38-9.5-1.67-20.32-.07-2.34-.12-4.75-.15-7.21,0-2.9-.09-5.84-.11-8.7h40.05v8.7l-.21,7.21s23.47,10.58,25.86,12.49S232.76,453.61,230.62,454.31Z" style="fill: rgb(255, 255, 255); transform-origin: 197.185px 435.924px;" id="elk2nhoa1vppm" class="animable"></path><path d="M230.81,454.41c-1.4.46-27.55.55-46.59.15-4.41-.09-8.44-.21-11.69-.35-4.48-.21-7.48-.45-8-.76-1.08-.7-1.6-13.83-1.84-27.68h40.16l-.21,7.24s23.61,10.64,26,12.56S233,453.68,230.81,454.41Z" style="fill: #4833C4; transform-origin: 197.225px 440.292px;" id="elvk7gzgdugkk" class="animable"></path><path d="M229.93,451.93c-10.35-.28-52.11-.45-62.37.06-.08,0-.08.06,0,.06,10.25.51,52,.34,62.37.05C230.15,452.1,230.15,451.94,229.93,451.93Z" style="fill: rgb(38, 50, 56); transform-origin: 198.798px 452.019px;" id="elpcwfl0qjhhn" class="animable"></path><path d="M204.14,430.71c-4.07-.77-9-.16-12.17,2.74-.12.11,0,.28.17.24a56.91,56.91,0,0,1,12-2.46A.26.26,0,0,0,204.14,430.71Z" style="fill: rgb(38, 50, 56); transform-origin: 198.161px 432.051px;" id="elyffm1har4a" class="animable"></path><path d="M207.08,432.49c-4.07-.77-9.06-.16-12.18,2.74-.12.11,0,.28.18.24a56.78,56.78,0,0,1,12-2.46A.26.26,0,0,0,207.08,432.49Z" style="fill: rgb(38, 50, 56); transform-origin: 201.096px 433.831px;" id="el2mh7rkbf7x8" class="animable"></path><path d="M210,434.27c-4.07-.77-9-.16-12.17,2.74-.12.11,0,.28.17.24a56.91,56.91,0,0,1,12-2.46A.26.26,0,0,0,210,434.27Z" style="fill: rgb(38, 50, 56); transform-origin: 204.019px 435.611px;" id="elqwgspdg0z5" class="animable"></path><path d="M213,436.05c-4.07-.77-9.06-.16-12.18,2.74-.12.11,0,.28.18.24a56.78,56.78,0,0,1,12-2.46A.26.26,0,0,0,213,436.05Z" style="fill: rgb(38, 50, 56); transform-origin: 207.016px 437.391px;" id="elpnuzusmcg3i" class="animable"></path><path d="M211.69,421.32c-1.59-2.21-4.58-1.23-6.28.2a21.7,21.7,0,0,0-6.3,9.31c0,.08,0,.13.1.14,0,.31.29.64.63.51,3.37-1.23,7.12-2.14,10-4.37C211.54,425.81,213.2,423.41,211.69,421.32Zm-7.12,7.25c-1.65.64-3.31,1.21-4.92,1.92a64.74,64.74,0,0,1,3.79-5.36,25.15,25.15,0,0,1,2.17-2.33c1.21-1.09,6-3.43,5.29,1C210.49,426.3,206.52,427.79,204.57,428.57Z" style="fill: rgb(38, 50, 56); transform-origin: 205.696px 425.765px;" id="el6by914mlx3x" class="animable"></path><path d="M188.76,429.73c3.36,1.44,7.22,1.38,10.78,1.74a.51.51,0,0,0,.49-.66.1.1,0,0,0,.06-.16,21.74,21.74,0,0,0-8.42-7.44c-2-1-5.14-1.16-6.14,1.37S186.81,428.89,188.76,429.73Zm-1.83-2.91c-1.82-4.14,3.42-3.08,4.87-2.32a23.27,23.27,0,0,1,2.67,1.71c1.8,1.28,3.37,2.8,5,4.24-1.74-.28-3.49-.41-5.25-.63C192.16,429.56,187.94,429.11,186.93,426.82Z" style="fill: rgb(38, 50, 56); transform-origin: 192.699px 427.001px;" id="elghiz5tgdi1f" class="animable"></path><path d="M149.58,222.7s10.81,106.84,11.06,108.19c0,.18.11,2.23.22,5.59.58,18.39,2,75.74,2,75.74H207s-2.88-67.93-4.53-83.77c-2.1-20.22-15.37-105.75-15.37-105.75Z" style="fill: rgb(69, 90, 100); transform-origin: 178.29px 317.46px;" id="elj8dc7yca8q" class="animable"></path><path d="M165.9,334.66q-2-34.73-6.13-69.29c-1.55-13-3.41-25.91-5.27-38.85,0-.11-.19-.11-.17,0,3.41,23,5.83,46.24,7.91,69.43s3.53,46.36,4.47,69.59c.54,13.16.95,26.33,1.37,39.5a.25.25,0,0,0,.49,0C168,381.56,167.27,358.09,165.9,334.66Z" style="fill: rgb(38, 50, 56); transform-origin: 161.449px 315.839px;" id="el56ufab7q0b9" class="animable"></path><path d="M204.17,405.11c-1.16-.15-2.41-.1-3.58-.14-1.33-.05-2.65-.06-4-.11-2.56-.1-5.11-.16-7.66-.2q-7.72-.14-15.44.11c-1.42,0-2.84.09-4.25.15s-3,.19-4.53.18a.07.07,0,1,0,0,.14c2.6,0,5.22.22,7.81.32s5.1.13,7.66.17c5.14.07,10.3,0,15.44-.16,1.41-.06,2.83-.08,4.24-.12.76,0,1.51-.07,2.27-.09s1.34,0,2-.07A.09.09,0,0,0,204.17,405.11Z" style="fill: rgb(38, 50, 56); transform-origin: 184.44px 405.183px;" id="el0n52yhgv5d6b" class="animable"></path><path d="M149.58,222.7s10.81,106.84,11.06,108.19c0,.18.11,2.23.22,5.59L181.63,222.7Z" style="fill: rgb(38, 50, 56); transform-origin: 165.605px 279.59px;" id="elpcwfxgeob9f" class="animable"></path><path d="M119.92,447.9c-2.23-.41-56-30-57.35-32.43-.52-.91,3.34-9,8.28-18.63L89,361.16l36.76,20.09L114,401.34l-4.82,8.25-3.63,6.22s15.52,20.55,16.71,23.36S122.14,448.3,119.92,447.9Z" style="fill: rgb(173, 99, 89); transform-origin: 94.1415px 404.539px;" id="ellu9ocfoszrd" class="animable"></path><path d="M119.92,447.9c-2.23-.41-56-30-57.35-32.43-.52-.91,3.34-9,8.28-18.63,1.06-2.09,5.66-11.66,7.22-14.19,10.53,5.69,26.5,13.7,36,18.69l-4.82,8.25-3.63,6.22s15.52,20.55,16.71,23.36S122.14,448.3,119.92,447.9Z" style="fill: rgb(255, 255, 255); transform-origin: 92.6453px 415.284px;" id="el2hmq2ctyzpd" class="animable"></path><path d="M120,448.06c-2.23-.41-56.32-30.16-57.67-32.6-.62-1.13,5.23-12.9,11.66-25.18l35.24,19.26-3.65,6.26s15.61,20.65,16.8,23.49S122.28,448.47,120,448.06Z" style="fill: #4833C4; transform-origin: 92.5581px 419.179px;" id="elcecum82jr1" class="animable"></path><path d="M120.46,445.47c-8.95-5.21-45.51-25.38-54.75-29.86-.08,0-.1,0,0,.06,8.75,5.36,45.48,25.24,54.7,29.95C120.57,445.72,120.65,445.58,120.46,445.47Z" style="fill: rgb(38, 50, 56); transform-origin: 93.1065px 430.632px;" id="elkkc5y04vl3c" class="animable"></path><path d="M108,414.49c-3.21-2.63-7.87-4.49-12-3.44-.16,0-.1.26,0,.29a57,57,0,0,1,11.69,3.59A.26.26,0,0,0,108,414.49Z" style="fill: rgb(38, 50, 56); transform-origin: 102.008px 412.865px;" id="eliou6622b69c" class="animable"></path><path d="M109.73,417.46c-3.2-2.63-7.87-4.49-12-3.44-.16,0-.1.26,0,.29a57.32,57.32,0,0,1,11.7,3.59A.26.26,0,0,0,109.73,417.46Z" style="fill: rgb(38, 50, 56); transform-origin: 103.739px 415.834px;" id="elmov66gklsv" class="animable"></path><path d="M111.45,420.42c-3.2-2.62-7.87-4.48-12-3.44-.16,0-.1.27,0,.3a57.32,57.32,0,0,1,11.7,3.59A.26.26,0,0,0,111.45,420.42Z" style="fill: rgb(38, 50, 56); transform-origin: 105.46px 418.801px;" id="eli6nrv4e56yl" class="animable"></path><path d="M113.17,423.39c-3.2-2.63-7.87-4.48-12-3.44-.16,0-.1.27,0,.3a56.52,56.52,0,0,1,11.7,3.59A.26.26,0,0,0,113.17,423.39Z" style="fill: rgb(38, 50, 56); transform-origin: 107.18px 421.77px;" id="el7xiek4f1axf" class="animable"></path><path d="M119.14,409.86c-.34-2.7-3.43-3.27-5.61-2.84a21.76,21.76,0,0,0-10,5.15c-.07.06,0,.13,0,.18a.5.5,0,0,0,.32.75c3.54.53,7.27,1.54,10.87,1C116.84,413.73,119.46,412.42,119.14,409.86Zm-9.73,2.94c-1.75-.21-3.48-.52-5.24-.67a64.3,64.3,0,0,1,5.9-2.88,23.08,23.08,0,0,1,3-1c1.6-.38,6.93-.13,4.15,3.44C115.69,413.66,111.49,413.06,109.41,412.8Z" style="fill: rgb(38, 50, 56); transform-origin: 111.311px 410.573px;" id="elm3wswqabfi" class="animable"></path><path d="M95,406.25c2.25,2.87,5.67,4.67,8.63,6.69a.5.5,0,0,0,.74-.34c.07,0,.14,0,.13-.11a21.78,21.78,0,0,0-3.82-10.58c-1.31-1.79-4-3.48-6-1.73S93.67,404.58,95,406.25Zm-.21-3.43c.39-4.51,4.47-1.07,5.38.3a23.38,23.38,0,0,1,1.53,2.78,65,65,0,0,1,2.37,6.12c-1.4-1.08-2.87-2-4.3-3.06C98,407.73,94.56,405.31,94.77,402.82Z" style="fill: rgb(38, 50, 56); transform-origin: 99.0231px 406.225px;" id="elffcqhrh0gjw" class="animable"></path><path d="M187.05,222.7s-2.71,16.16-13.11,24.49c0,0-15.34,64.19-18.7,76.12-5.06,18-36.08,74-36.08,74l-38.8-19.95s31.81-60.4,35.23-65.12c2.27-3.14,11.71-55.64,11.41-57.29-3.54-19.6,5.31-32.28,5.31-32.28Z" style="fill: rgb(69, 90, 100); transform-origin: 133.705px 309.99px;" id="el0hae9fnfj1f6" class="animable"></path><path d="M151,226.13a14.7,14.7,0,0,1-5,8,18.19,18.19,0,0,1-9.63,3.8c-.59.08-.59,1,0,1,7.18-.29,14.22-5.2,14.93-12.7C151.26,226,151,226,151,226.13Z" style="fill: rgb(38, 50, 56); transform-origin: 143.614px 232.486px;" id="el5rb6ab2p8k" class="animable"></path><path d="M180.61,242a40.31,40.31,0,0,0-7.24,4.28c-2.39,1.63-4.59,3.53-6.89,5.28-.09.07,0,.21.09.15,2.43-1.55,5-2.91,7.37-4.51a46.92,46.92,0,0,0,6.78-5C180.8,242.11,180.71,242,180.61,242Z" style="fill: rgb(38, 50, 56); transform-origin: 173.597px 246.862px;" id="elji5zwhywxt" class="animable"></path><path d="M180.93,227c-.3,1.67-.71,3.31-1.07,5s-.58,3.13-1,4.66a8,8,0,0,1-2.17,3.91c-.61.57-1.28,1.07-1.93,1.59-.35.28-.73.54-1.09.83,0-.22.09-.45.13-.67.11-.63.21-1.26.32-1.89.23-1.4.46-2.81.67-4.21.42-2.76.81-5.54,1.39-8.27,0-.11-.15-.16-.17,0-.69,2.71-1.45,5.39-2.05,8.11-.29,1.34-1.34,8-1.38,8.42s-.09,1-.11,1.45a5.64,5.64,0,0,0,0,1.48.12.12,0,0,0,.22,0h0a5.88,5.88,0,0,0,.42-1.43c.12-.47.23-.95.31-1.43,0-.17.06-.35.08-.53.65-.39,1.26-.91,1.87-1.36s1.32-.93,1.94-1.45a7.42,7.42,0,0,0,2.37-3.71,27.21,27.21,0,0,0,.78-4.75c.21-1.88.36-3.76.63-5.63C181.12,226.92,181,226.87,180.93,227Z" style="fill: rgb(38, 50, 56); transform-origin: 176.758px 237.205px;" id="el9llwkcrfnzo" class="animable"></path><path d="M121,388.5c-1-.67-2.09-1.21-3.11-1.78s-2.33-1.27-3.48-1.92c-2.22-1.27-4.46-2.5-6.7-3.71-4.53-2.44-9.12-4.79-13.76-7l-3.84-1.82c-1.37-.65-2.77-1.22-4.11-1.92-.1-.06-.16.07-.06.12,2.31,1.18,4.53,2.6,6.79,3.87s4.46,2.48,6.71,3.68c4.54,2.43,9.14,4.77,13.79,7,1.28.6,2.54,1.24,3.82,1.85.68.33,1.37.63,2,1s1.19.63,1.82.86A.09.09,0,0,0,121,388.5Z" style="fill: rgb(38, 50, 56); transform-origin: 103.477px 379.54px;" id="elragupmb5f3" class="animable"></path><path d="M140,219.55a40.41,40.41,0,0,0-9,24.87,42.53,42.53,0,0,0,.5,7.13,43.18,43.18,0,0,1,.7,7.86,55.73,55.73,0,0,1-1.1,8.13q-.75,4.05-1.56,8.08-1.6,8-3.41,15.94c-1.19,5.25-2.35,10.53-3.8,15.71a48.44,48.44,0,0,1-6.12,14.08c-2.69,4.49-5.3,9-7.66,13.67q-3.7,7.35-7.34,14.75c-1.2,2.43-2.38,4.87-3.57,7.31S95.15,362,94,364.55c-.56,1.27-1.15,2.51-1.76,3.76-.06.12.13.23.19.1,1.26-2.46,2.61-4.86,3.89-7.31s2.49-4.81,3.74-7.22c2.51-4.86,5-9.75,7.44-14.64s4.8-9.54,7.55-14.12c2.61-4.33,5.23-8.59,6.87-13.4s2.8-10.12,4-15.21q1.88-7.92,3.53-15.91c1.12-5.34,2.25-10.7,3.12-16.09a32.15,32.15,0,0,0,.46-7.71c-.21-2.64-.78-5.23-1-7.86a42,42,0,0,1,6.28-26.39c.61-1,1.23-1.93,1.9-2.86C140.27,219.58,140.09,219.45,140,219.55Z" style="fill: rgb(38, 50, 56); transform-origin: 116.225px 293.991px;" id="elsqx7mt8n04" class="animable"></path><ellipse cx="168.11" cy="137.2" rx="25.1" ry="26.07" style="fill: rgb(38, 50, 56); transform-origin: 168.11px 137.2px;" id="els8ftihowdwe" class="animable"></ellipse><path d="M156.09,156a3.46,3.46,0,1,1-3.45-3.46A3.44,3.44,0,0,1,156.09,156Z" style="fill: rgb(38, 50, 56); transform-origin: 152.63px 156px;" id="el00ho4czom8g4s" class="animable"></path><path d="M192.77,150.78a3.46,3.46,0,1,1-3.46-3.45A3.46,3.46,0,0,1,192.77,150.78Z" style="fill: rgb(38, 50, 56); transform-origin: 189.31px 150.79px;" id="eluplgp21h3oo" class="animable"></path><path d="M196.23,134.65a3.46,3.46,0,1,1-3.46-3.46A3.45,3.45,0,0,1,196.23,134.65Z" style="fill: rgb(38, 50, 56); transform-origin: 192.77px 134.65px;" id="el37wosailvte" class="animable"></path><path d="M148.19,131.5a3.46,3.46,0,1,1-3.46-3.45A3.46,3.46,0,0,1,148.19,131.5Z" style="fill: rgb(38, 50, 56); transform-origin: 144.73px 131.51px;" id="el93gcrbbc8ah" class="animable"></path><path d="M152.64,122.19a3.46,3.46,0,1,1-3.46-3.46A3.46,3.46,0,0,1,152.64,122.19Z" style="fill: rgb(38, 50, 56); transform-origin: 149.18px 122.19px;" id="elvmhxbff67w" class="animable"></path><path d="M156.84,118.28a3.46,3.46,0,1,1-3.46-3.45A3.46,3.46,0,0,1,156.84,118.28Z" style="fill: rgb(38, 50, 56); transform-origin: 153.38px 118.29px;" id="elr612ougo" class="animable"></path><path d="M161,114a3.46,3.46,0,1,1-3.46-3.46A3.46,3.46,0,0,1,161,114Z" style="fill: rgb(38, 50, 56); transform-origin: 157.54px 114px;" id="elsjecd01zpch" class="animable"></path><path d="M166.47,113.36a3.46,3.46,0,1,1-3.45-3.45A3.45,3.45,0,0,1,166.47,113.36Z" style="fill: rgb(38, 50, 56); transform-origin: 163.01px 113.37px;" id="elnwcz51gilx" class="animable"></path><path d="M182.5,113.36a3.46,3.46,0,1,1-3.46-3.45A3.46,3.46,0,0,1,182.5,113.36Z" style="fill: rgb(38, 50, 56); transform-origin: 179.04px 113.37px;" id="elogaspygx6bg" class="animable"></path><circle cx="186.7" cy="120.15" r="3.46" style="fill: rgb(38, 50, 56); transform-origin: 186.7px 120.15px;" id="el24p2indyfqp" class="animable"></circle><path d="M149.93,146.7a3.46,3.46,0,1,1-3.46-3.46A3.46,3.46,0,0,1,149.93,146.7Z" style="fill: rgb(38, 50, 56); transform-origin: 146.47px 146.7px;" id="elp90gjk34scl" class="animable"></path><path d="M165.21,160.59a3.46,3.46,0,1,1-3.46-3.45A3.46,3.46,0,0,1,165.21,160.59Z" style="fill: rgb(38, 50, 56); transform-origin: 161.75px 160.6px;" id="elwleh2e6dqug" class="animable"></path><path d="M170.12,160.64a3.46,3.46,0,1,1-3.46-3.46A3.46,3.46,0,0,1,170.12,160.64Z" style="fill: rgb(38, 50, 56); transform-origin: 166.66px 160.64px;" id="elhmbiu34r30d" class="animable"></path><path d="M148.19,141.63a3.46,3.46,0,1,1-3.46-3.46A3.46,3.46,0,0,1,148.19,141.63Z" style="fill: rgb(38, 50, 56); transform-origin: 144.73px 141.63px;" id="elmijlub3s3hk" class="animable"></path><path d="M152,151.77a3.14,3.14,0,1,1-3.14-3.14A3.15,3.15,0,0,1,152,151.77Z" style="fill: rgb(38, 50, 56); transform-origin: 148.86px 151.77px;" id="el7xar0aey4mi" class="animable"></path><path d="M171.57,111.68a3.14,3.14,0,1,1-3.14-3.14A3.15,3.15,0,0,1,171.57,111.68Z" style="fill: rgb(38, 50, 56); transform-origin: 168.43px 111.68px;" id="el157djjxwlfj" class="animable"></path><path d="M147.87,136.59a3.14,3.14,0,1,1-3.14-3.14A3.15,3.15,0,0,1,147.87,136.59Z" style="fill: rgb(38, 50, 56); transform-origin: 144.73px 136.59px;" id="eleu9kme0h3k" class="animable"></path><path d="M149.61,126.75a3.14,3.14,0,1,1-3.14-3.14A3.15,3.15,0,0,1,149.61,126.75Z" style="fill: rgb(38, 50, 56); transform-origin: 146.47px 126.75px;" id="elggikporkrbh" class="animable"></path><path d="M176.66,112.06a3.15,3.15,0,1,1-3.15-3.14A3.15,3.15,0,0,1,176.66,112.06Z" style="fill: rgb(38, 50, 56); transform-origin: 173.51px 112.07px;" id="elj053cmduk4k" class="animable"></path><path d="M160.37,158.67a3.14,3.14,0,1,1-3.14-3.14A3.14,3.14,0,0,1,160.37,158.67Z" style="fill: rgb(38, 50, 56); transform-origin: 157.23px 158.67px;" id="elbzs5og087rn" class="animable"></path><path d="M174.71,161.81a3.14,3.14,0,1,1-3.14-3.14A3.15,3.15,0,0,1,174.71,161.81Z" style="fill: rgb(38, 50, 56); transform-origin: 171.57px 161.81px;" id="el4jzi3bpbqxp" class="animable"></path><path d="M180.32,160.64a3.14,3.14,0,1,1-3.14-3.14A3.14,3.14,0,0,1,180.32,160.64Z" style="fill: rgb(38, 50, 56); transform-origin: 177.18px 160.64px;" id="elrrvxp915uyl" class="animable"></path><path d="M184.75,157.5a3.14,3.14,0,1,1-3.14-3.14A3.15,3.15,0,0,1,184.75,157.5Z" style="fill: rgb(38, 50, 56); transform-origin: 181.61px 157.5px;" id="elrcqan0f4cs" class="animable"></path><path d="M189.84,155.32a3.14,3.14,0,1,1-3.14-3.14A3.15,3.15,0,0,1,189.84,155.32Z" style="fill: rgb(38, 50, 56); transform-origin: 186.7px 155.32px;" id="el3xm5tqqlwf2" class="animable"></path><path d="M195.41,146.35a3.14,3.14,0,1,1-3.14-3.14A3.13,3.13,0,0,1,195.41,146.35Z" style="fill: rgb(38, 50, 56); transform-origin: 192.27px 146.35px;" id="el875900pxseb" class="animable"></path><path d="M195.41,140.56a3.14,3.14,0,1,1-3.14-3.14A3.14,3.14,0,0,1,195.41,140.56Z" style="fill: rgb(38, 50, 56); transform-origin: 192.27px 140.56px;" id="ele0oiyiaik3c" class="animable"></path><circle cx="183.56" cy="115.59" r="3.14" style="fill: rgb(38, 50, 56); transform-origin: 183.56px 115.59px;" id="eliw6umm5jq1n" class="animable"></circle><circle cx="190.84" cy="124.17" r="3.14" style="fill: rgb(38, 50, 56); transform-origin: 190.84px 124.17px;" id="ellg8npc6a4wh" class="animable"></circle><path d="M194.67,129.14a3.14,3.14,0,1,1-3.14-3.14A3.14,3.14,0,0,1,194.67,129.14Z" style="fill: rgb(38, 50, 56); transform-origin: 191.53px 129.14px;" id="elp6nfev6qmp" class="animable"></path><path d="M171.91,170.06c2.93,6.46,23.83,27.42,41.29,34.17,6.4,2.48,34.43-3.53,41.1-6.16,7.8-3.08,3.13-22.47-1.81-22.57-6.16-.13-32.73,5.57-38.38,5.3-6.87-.33-22.55-11.23-36-16.82C171.22,161.11,169.65,165.08,171.91,170.06Z" style="fill: rgb(173, 99, 89); transform-origin: 214.703px 183.916px;" id="elklpvxpo73mk" class="animable"></path><path d="M254.3,198.07c2.5-.85,13.65-5.74,16.44-7.8s10.42-8.55,9.06-10.85-3.74-.58-3.74-.58,2.79-3.25,1.21-5.45-5.2.61-5.2.61,2.62-3.55.89-5.62-4.9,1.36-4.9,1.36,2.55-3.14.4-4.25c-2.58-1.33-6.61,5-9.87,7-.74.47-15.66,8.31-15.66,8.31Z" style="fill: rgb(173, 99, 89); transform-origin: 261.445px 181.689px;" id="el9eniao4zk2j" class="animable"></path><path d="M268.34,169.45c-3,4.63-5.08,6.14-10,8.43-.1.05-.05.2,0,.16,5-1.81,7.93-3.32,10.17-8.46C268.68,169.33,268.48,169.23,268.34,169.45Z" style="fill: rgb(38, 50, 56); transform-origin: 263.429px 173.688px;" id="elz0hpj10cu19" class="animable"></path><path d="M272.3,173.63c-3.51,4.54-5.77,6.2-10.74,9-.07,0,0,.16.06.13,5.1-2.32,8-3.9,10.89-8.89C272.64,173.62,272.46,173.43,272.3,173.63Z" style="fill: rgb(38, 50, 56); transform-origin: 267.043px 178.155px;" id="elvhd9ygag18b" class="animable"></path><path d="M275.81,179c-3.72,4.15-6.13,6.08-11.3,8.16a.1.1,0,0,0,.07.19,18.48,18.48,0,0,0,11.34-8.22C276.11,178.81,276,178.71,275.81,179Z" style="fill: rgb(38, 50, 56); transform-origin: 270.231px 183.092px;" id="elt48k7xidqz" class="animable"></path><path d="M238.37,181.14s4.46-5.26,6.93-7.13,14.26-5.49,15.18-3c1.19,3.23-5.2,6.66-8.55,7.92,0,0,2.76,7.47-1.29,10.92S238.37,181.14,238.37,181.14Z" style="fill: rgb(173, 99, 89); transform-origin: 249.498px 180.315px;" id="elhln1hu1nx0q" class="animable"></path><path d="M260.52,172c-1,3.73-5.54,5.11-8.7,6.58a.31.31,0,0,0-.11.51c.94,3.21,1.35,8-.86,10.77a.08.08,0,0,0,.12.11c2.77-2.64,2.76-7.39,1.49-10.84,3.26-1.45,7.72-3,8.1-7.12A0,0,0,0,0,260.52,172Z" style="fill: rgb(38, 50, 56); transform-origin: 255.695px 180.998px;" id="elfwiltebgyp7" class="animable"></path><path d="M191,193.86l12.06-18.45s-14.59-8.26-22.79-11.47-14.86-.7-7,10.24C179.88,183.47,191,193.86,191,193.86Z" style="fill: rgb(38, 50, 56); transform-origin: 186.409px 178.252px;" id="elztq0tbe9y" class="animable"></path><path d="M189.21,208.13l.3,26s-52.23-5.7-63.28-8.4c0,0,19.62-42.95,36.17-60.63,7.44-6.2,14.47-2.69,18.87,2.28,1.09,1.24,12.52,21.38,12.78,28.49C194.27,202.13,189.21,208.13,189.21,208.13Z" style="fill: #4833C4; transform-origin: 160.143px 197.958px;" id="el6rtbqnzt90r" class="animable"></path><path d="M168.65,164c.25,1,5,7.28,9.53,7,1.46-.09,1.3-8.1,1.3-8.1l.13-.59,1.72-8.31L171.5,148l-1.42-.8s-.32,2.3-.69,5.17c0,.14,0,.27,0,.41s-.05.32-.07.47c-.06.43-.12.87-.17,1.3s-.08.66-.11,1-.07.69-.11,1.05A53.58,53.58,0,0,0,168.65,164Z" style="fill: rgb(173, 99, 89); transform-origin: 174.977px 159.105px;" id="elfb5pyywqxzn" class="animable"></path><path d="M169.39,152.32a17,17,0,0,0,10.22,10l1.72-8.31L171.5,148l-1.42-.8S169.76,149.45,169.39,152.32Z" style="fill: rgb(38, 50, 56); transform-origin: 175.36px 154.76px;" id="el3dk6cbj7k2r" class="animable"></path><path d="M192.39,140.62c1.59,14.81-7.1,17.44-10.3,17.77-2.9.31-12.81,1-15.92-13.58s3.28-20,9.88-21S190.81,125.81,192.39,140.62Z" style="fill: rgb(173, 99, 89); transform-origin: 178.971px 141.07px;" id="elufwr229dr9" class="animable"></path><path d="M189.42,138.66c-.35,0-.67-.11-1-.17a1.69,1.69,0,0,1-1-.38.54.54,0,0,1,0-.65,1.32,1.32,0,0,1,1.29-.35,1.9,1.9,0,0,1,1.23.64A.56.56,0,0,1,189.42,138.66Z" style="fill: rgb(38, 50, 56); transform-origin: 188.69px 137.865px;" id="elyb3bly6vzts" class="animable"></path><path d="M179.13,139.36c.35-.06.66-.16,1-.25a1.68,1.68,0,0,0,1-.45.54.54,0,0,0,0-.65,1.32,1.32,0,0,0-1.3-.26,1.94,1.94,0,0,0-1.19.73A.57.57,0,0,0,179.13,139.36Z" style="fill: rgb(38, 50, 56); transform-origin: 179.894px 138.52px;" id="elrw5a6blpytf" class="animable"></path><path d="M181.25,143s-.07.05-.07.09c.09,1,0,2.19-.87,2.58,0,0,0,.06,0,0C181.43,145.54,181.5,144,181.25,143Z" style="fill: rgb(38, 50, 56); transform-origin: 180.839px 144.348px;" id="el17tlwjv20t9" class="animable"></path><path d="M180.28,142c-1.63,0-1.56,3.24-.05,3.27S181.65,142.06,180.28,142Z" style="fill: rgb(38, 50, 56); transform-origin: 180.206px 143.635px;" id="elyl93o14p8v" class="animable"></path><path d="M179.64,142.22c-.28.19-.55.53-.89.57s-.71-.29-1-.61c0,0-.05,0-.05,0,0,.62.26,1.26.93,1.34s1-.49,1.19-1.13C179.86,142.32,179.76,142.15,179.64,142.22Z" style="fill: rgb(38, 50, 56); transform-origin: 178.764px 142.854px;" id="eleguguvctgaq" class="animable"></path><path d="M187.59,142.44s.08.05.08.09c0,1,.13,2.18,1.06,2.51,0,0,0,.06,0,.05C187.6,145,187.41,143.4,187.59,142.44Z" style="fill: rgb(38, 50, 56); transform-origin: 188.13px 143.766px;" id="elf0i4v4woz8e" class="animable"></path><path d="M188.49,141.37c1.63-.14,1.8,3.13.29,3.26S187.12,141.49,188.49,141.37Z" style="fill: rgb(38, 50, 56); transform-origin: 188.684px 143px;" id="elqwiyv32eda" class="animable"></path><path d="M189.18,141.55c.27.16.54.46.85.47s.6-.37.81-.72c0,0,0,0,.06,0,0,.62-.13,1.28-.72,1.43s-1-.37-1.15-1C189,141.67,189.07,141.49,189.18,141.55Z" style="fill: rgb(38, 50, 56); transform-origin: 189.962px 142.028px;" id="elashdrxse39t" class="animable"></path><path d="M181.91,150.81c.24.24.48.57.84.61a2.77,2.77,0,0,0,1.1-.22s.06,0,0,.05a1.38,1.38,0,0,1-1.3.52,1.07,1.07,0,0,1-.77-.92C181.8,150.79,181.88,150.77,181.91,150.81Z" style="fill: rgb(38, 50, 56); transform-origin: 182.828px 151.288px;" id="elbbqixevzia" class="animable"></path><path d="M186,147s.26,1.5.29,2.22c0,.06-.17.1-.42.12,0,0,0,0,0,0a3.38,3.38,0,0,1-3.34-1.16c-.06-.06,0-.14.1-.1a5.1,5.1,0,0,0,3.13.79c0-.2-.53-2.57-.42-2.58a6.12,6.12,0,0,1,1.64.31c-.45-3.15-1.4-6.21-1.8-9.36,0-.11.15-.15.18-.05a51.37,51.37,0,0,1,2.37,10C187.81,147.61,186.32,147.12,186,147Z" style="fill: rgb(38, 50, 56); transform-origin: 185.12px 143.276px;" id="eltjkttnxwi6d" class="animable"></path><path d="M167.8,145.73c2.57,1.07,1.44-3.31,1.44-3.31s2.23-1.33,1.08-4.45c0,0,3.08.91,3.41-3.46a2.77,2.77,0,0,0,2.45-3.23s3.63,2,5.11-1.37c0,0,2.63,2.92,4.72,0a2.69,2.69,0,0,0,3.15,1.33,4,4,0,0,0,1.9,2.78s-4.38-15.2-18.12-9.87C160.25,129.11,164.81,144.5,167.8,145.73Z" style="fill: rgb(38, 50, 56); transform-origin: 177.774px 134.458px;" id="el6jqvxk9c1ou" class="animable"></path><path d="M168.76,146.14s-3.34-4.58-5.43-3.38.49,7.89,3,8.76a2.53,2.53,0,0,0,3.35-1.42Z" style="fill: rgb(173, 99, 89); transform-origin: 166.122px 147.14px;" id="el5a6wktjyeb6" class="animable"></path><path d="M164.12,144.66s-.05.05,0,.06c1.75.67,2.69,2.26,3.37,3.92a1.4,1.4,0,0,0-2.09-.34s0,.1.05.09a1.55,1.55,0,0,1,1.71.51,7.37,7.37,0,0,1,.85,1.36c.08.15.36.07.3-.11l0,0C168.28,147.89,166.5,144.83,164.12,144.66Z" style="fill: rgb(38, 50, 56); transform-origin: 166.208px 147.499px;" id="elmvm0ffq7b5j" class="animable"></path><path d="M345.73,150.2l.22,83.52a8.45,8.45,0,0,1-8.43,8.47l-132.45.35a8.45,8.45,0,0,1-8.47-8.44l-.22-83.51a7.88,7.88,0,0,1,7.85-7.89l133.62-.34A7.86,7.86,0,0,1,345.73,150.2Z" style="fill: #4833C4; transform-origin: 271.165px 192.45px;" id="eld2ifxl1z0mw" class="animable"></path><g id="elgfrwssgwjtr"><path d="M345.73,150.2l.22,83.52a8.45,8.45,0,0,1-8.43,8.47l-132.45.35a8.45,8.45,0,0,1-8.47-8.44l-.22-83.51a7.88,7.88,0,0,1,7.85-7.89l133.62-.34A7.86,7.86,0,0,1,345.73,150.2Z" style="opacity: 0.2; transform-origin: 271.165px 192.45px;" class="animable" id="elvs9hf2csmjk"></path></g><g id="elcvt1fu50o4q"><rect x="208.97" y="157" width="28.04" height="19.37" rx="4.2" style="fill: #4833C4; transform-origin: 222.99px 166.685px; transform: rotate(-0.15deg);" class="animable" id="eld4mrxb0zds5"></rect></g><path d="M208,194.07l-1.14.68a.27.27,0,0,1-.14.05.29.29,0,0,1-.25-.14.27.27,0,0,1,.11-.38l1.56-1a.31.31,0,0,1,.39.1.39.39,0,0,1,0,.21l0,7.47a.27.27,0,0,1-.28.28.28.28,0,0,1-.28-.28Z" style="fill: rgb(248, 248, 248); transform-origin: 207.488px 197.294px;" id="elodqpx7e5498" class="animable"></path><path d="M210.59,200.88l3.79-3.44a2.13,2.13,0,0,0,.69-1.56,2.06,2.06,0,0,0-.55-1.39,2.12,2.12,0,0,0-3-.15l-.4.37a.27.27,0,0,1-.39,0,.27.27,0,0,1,0-.4l.39-.37a2.69,2.69,0,0,1,1.8-.69,2.57,2.57,0,0,1,1.95.86,2.63,2.63,0,0,1,.71,1.78,2.7,2.7,0,0,1-.87,2l-3.24,2.95,3.84,0a.29.29,0,0,1,.28.29.28.28,0,0,1-.28.28l-4.53,0h-.05a.24.24,0,0,1-.2-.09A.29.29,0,0,1,210.59,200.88Z" style="fill: rgb(248, 248, 248); transform-origin: 213.022px 197.33px;" id="elkgalccnvu3c" class="animable"></path><path d="M222.34,193.72l-2.09,2.17a2.75,2.75,0,0,1,1.39,4.64,2.73,2.73,0,0,1-1.95.82,2.68,2.68,0,0,1-1.94-.81.28.28,0,1,1,.4-.4,2.24,2.24,0,0,0,1.54.62,2.17,2.17,0,0,0,2.18-2.18,2.12,2.12,0,0,0-.64-1.53,2.09,2.09,0,0,0-1.54-.63.31.31,0,0,1-.23-.12h0a.29.29,0,0,1,0-.42l2-2.08h-3.11a.28.28,0,0,1-.29-.29.28.28,0,0,1,.29-.29h3.79a.29.29,0,0,1,.3.29.18.18,0,0,1,0,.13A.15.15,0,0,1,222.34,193.72Z" style="fill: rgb(248, 248, 248); transform-origin: 220.06px 197.285px;" id="elf8ds1rygs9f" class="animable"></path><path d="M229.19,199.66h-4.44a.25.25,0,0,1-.18-.06.27.27,0,0,1,0-.4l4.69-5.86v0a.26.26,0,0,1,.39,0c.05,0,.07.09.1.14s0,0,0,0v5.62h.55a.28.28,0,1,1,0,.56h-.55v1.4a.29.29,0,0,1-.57,0Zm0-.56v-4.77l-3.83,4.78Z" style="fill: rgb(248, 248, 248); transform-origin: 227.532px 197.274px;" id="elqi07cj9qmj" class="animable"></path><path d="M239.38,200.5a.28.28,0,0,1,0-.41.31.31,0,0,1,.42,0,2.15,2.15,0,0,0,3.06,0,2.13,2.13,0,0,0,.64-1.53,2.18,2.18,0,0,0-.63-1.55,2.2,2.2,0,0,0-1.54-.62,2.14,2.14,0,0,0-1.54.64.28.28,0,0,1-.41,0,.16.16,0,0,1-.07-.09h0a0,0,0,0,1,0,0,.31.31,0,0,1,0-.1.35.35,0,0,0,0-.06l.39-3.27a.22.22,0,0,1,.11-.21.26.26,0,0,1,.19-.07h3.78a.29.29,0,1,1,0,.58h-3.55l-.28,2.42a2.68,2.68,0,0,1,1.38-.38,2.75,2.75,0,0,1,2.75,2.75,2.72,2.72,0,0,1-.8,2,2.87,2.87,0,0,1-1.95.81A2.76,2.76,0,0,1,239.38,200.5Z" style="fill: rgb(248, 248, 248); transform-origin: 241.686px 197.32px;" id="elxo5v3oogxmp" class="animable"></path><path d="M247.11,194.93a3.29,3.29,0,0,1,2.84-1.78.29.29,0,0,1,.29.27.3.3,0,0,1-.28.3,2.76,2.76,0,0,0-2.36,1.48,5.45,5.45,0,0,0-.58,1.63,2.68,2.68,0,1,1-.67,1.86,4.61,4.61,0,0,1,0-.53A6.64,6.64,0,0,1,247.11,194.93Zm-.19,3.71a.41.41,0,0,0,0,.16.12.12,0,0,1,0,.08,2.18,2.18,0,1,0,0-.28Z" style="fill: rgb(248, 248, 248); transform-origin: 249.025px 197.217px;" id="eln8nzkkgmanm" class="animable"></path><path d="M254.7,200.87l3-7.14h-3.93a.28.28,0,0,1,0-.56h4.3a.33.33,0,0,1,.17,0,.28.28,0,0,1,.15.17s0,.06,0,.09a.3.3,0,0,1-.05.16l-3.13,7.49a.3.3,0,0,1-.25.17.25.25,0,0,1-.12,0A.3.3,0,0,1,254.7,200.87Z" style="fill: rgb(248, 248, 248); transform-origin: 255.94px 197.208px;" id="el0ct1dk2d2537" class="animable"></path><path d="M262.71,193.11a1.69,1.69,0,0,1,1,3,2.65,2.65,0,0,1,1.64,2.44,2.64,2.64,0,0,1-5.27,0,2.65,2.65,0,0,1,1.62-2.44,1.72,1.72,0,0,1-.68-1.37A1.68,1.68,0,0,1,262.71,193.11Zm0,7.57a2.06,2.06,0,0,0,2.07-2.08,2.08,2.08,0,1,0-2.07,2.08Zm0-4.74a1.14,1.14,0,0,0,1.13-1.15,1.13,1.13,0,0,0-2.26,0A1.14,1.14,0,0,0,262.72,195.94Z" style="fill: rgb(248, 248, 248); transform-origin: 262.715px 197.069px;" id="elmdz960us89q" class="animable"></path><path d="M277.17,193.07a2.67,2.67,0,0,1,2.67,2.36.33.33,0,0,1,0,.06c0,.22,0,.45,0,.7a6.56,6.56,0,0,1-.77,3.24,3.34,3.34,0,0,1-2.84,1.78h0a.28.28,0,0,1-.29-.27.29.29,0,0,1,.28-.3,2.78,2.78,0,0,0,2.36-1.48,5,5,0,0,0,.58-1.63,2.69,2.69,0,1,1-2-4.46Zm2.13,2.67a2.12,2.12,0,1,0-2.12,2.12A2.11,2.11,0,0,0,279.3,195.74Z" style="fill: rgb(248, 248, 248); transform-origin: 277.143px 197.14px;" id="elrlnvqi6fake" class="animable"></path><path d="M281.93,197.13a5.16,5.16,0,0,1,.78-2.85,2.49,2.49,0,0,1,2-1.23,2.54,2.54,0,0,1,2,1.22,5.24,5.24,0,0,1,.8,2.84,5.32,5.32,0,0,1-.78,2.84,2.52,2.52,0,0,1-2,1.23,2.49,2.49,0,0,1-2-1.22A5.18,5.18,0,0,1,281.93,197.13Zm.57,0a4.66,4.66,0,0,0,.7,2.52,1.91,1.91,0,0,0,1.56,1,2,2,0,0,0,1.55-1,4.92,4.92,0,0,0,0-5,1.74,1.74,0,0,0-3.12,0A4.68,4.68,0,0,0,282.5,197.12Z" style="fill: rgb(248, 248, 248); transform-origin: 284.72px 197.115px;" id="el15vwah51wn2" class="animable"></path><path d="M291.32,193.86l-1.15.68a.29.29,0,0,1-.14,0,.26.26,0,0,1-.24-.14.26.26,0,0,1,.1-.38l1.57-1a.29.29,0,0,1,.38.11.32.32,0,0,1,0,.21l0,7.47a.28.28,0,0,1-.28.28.29.29,0,0,1-.28-.28Z" style="fill: rgb(248, 248, 248); transform-origin: 290.801px 197.039px;" id="elxqn9wt6k8ie" class="animable"></path><path d="M293.89,200.66l3.79-3.44a2.09,2.09,0,0,0-1.4-3.63,2.14,2.14,0,0,0-1.42.54l-.39.36a.27.27,0,0,1-.4,0,.28.28,0,0,1,0-.4l.4-.37a2.74,2.74,0,0,1,1.8-.69,2.67,2.67,0,0,1,2.65,2.64,2.68,2.68,0,0,1-.86,2l-3.25,3h3.85a.3.3,0,0,1,.28.29.29.29,0,0,1-.28.28h-4.58a.26.26,0,0,1-.21-.08A.32.32,0,0,1,293.89,200.66Z" style="fill: rgb(248, 248, 248); transform-origin: 296.35px 197.135px;" id="elgs628rf9mjb" class="animable"></path><path d="M312.62,193.49l-2.1,2.17a2.63,2.63,0,0,1,1.39.74,2.76,2.76,0,1,1-3.89,3.91.28.28,0,0,1,0-.41.3.3,0,0,1,.41,0,2.17,2.17,0,0,0,1.53.63,2.23,2.23,0,0,0,1.54-.64,2.16,2.16,0,0,0,.64-1.54,2.1,2.1,0,0,0-.64-1.53,2.14,2.14,0,0,0-1.54-.64.34.34,0,0,1-.23-.11h0a.29.29,0,0,1,0-.42l2-2.09h-3.11a.29.29,0,0,1-.29-.29.28.28,0,0,1,.29-.29h3.8a.29.29,0,0,1,.29.29.2.2,0,0,1,0,.13A.26.26,0,0,1,312.62,193.49Z" style="fill: rgb(248, 248, 248); transform-origin: 310.367px 197.087px;" id="elng5zl94ufxh" class="animable"></path><path d="M319.46,199.42H315a.25.25,0,0,1-.18-.06.26.26,0,0,1,0-.39l4.69-5.87h0a.28.28,0,0,1,.4,0,.55.55,0,0,1,.09.14.2.2,0,0,0,0,.05v5.61h.55a.29.29,0,0,1,.29.28.28.28,0,0,1-.29.28H320v1.39a.28.28,0,0,1-.29.28.28.28,0,0,1-.28-.27Zm0-.56,0-4.76-3.83,4.77Z" style="fill: rgb(248, 248, 248); transform-origin: 317.786px 197.073px;" id="el4vvggwxud9h" class="animable"></path><path d="M322.68,200.28a.28.28,0,0,1,0-.4.29.29,0,0,1,.42,0,2.22,2.22,0,0,0,1.54.62,2.18,2.18,0,0,0,0-4.35,2.22,2.22,0,0,0-1.55.65.28.28,0,0,1-.4,0,.15.15,0,0,1-.07-.09v0a0,0,0,0,1,0,0,.13.13,0,0,1,0-.09s0,0,0-.06l.39-3.28a.26.26,0,0,1,.12-.21.27.27,0,0,1,.18-.07h3.79a.29.29,0,0,1,.29.29.28.28,0,0,1-.29.29h-3.54l-.29,2.42a2.82,2.82,0,0,1,1.39-.38,2.72,2.72,0,0,1,1.94.8,2.79,2.79,0,0,1,0,3.9,2.8,2.8,0,0,1-1.95.81A2.75,2.75,0,0,1,322.68,200.28Z" style="fill: rgb(248, 248, 248); transform-origin: 324.995px 197.065px;" id="elo02hgy1di2" class="animable"></path><path d="M330.41,194.71a3.31,3.31,0,0,1,2.85-1.77.28.28,0,0,1,.29.26.31.31,0,0,1-.28.31A2.76,2.76,0,0,0,330.9,195a5.25,5.25,0,0,0-.57,1.63,2.67,2.67,0,1,1-.67,1.86,3.2,3.2,0,0,1,0-.54A6.79,6.79,0,0,1,330.41,194.71Zm-.18,3.72a.68.68,0,0,0,0,.15.19.19,0,0,1,0,.08,2.18,2.18,0,1,0,0-.28Z" style="fill: rgb(248, 248, 248); transform-origin: 332.324px 197.005px;" id="el052bpkcp40bs" class="animable"></path><g id="elyioyr5r84t"><rect x="209.1" y="215.24" width="70.92" height="3.49" style="fill: rgb(55, 71, 79); transform-origin: 244.56px 216.985px; transform: rotate(-0.15deg);" class="animable" id="el0faxptfk0diw"></rect></g><g id="elrscd9pd73hk"><rect x="209.12" y="223.01" width="50.21" height="3.49" style="fill: rgb(55, 71, 79); transform-origin: 234.225px 224.755px; transform: rotate(0deg);" class="animable" id="elsbewmhay4i8"></rect></g><g id="el4hcavhlnee4"><rect x="270.24" y="156.83" width="35.37" height="3.49" style="fill: rgb(55, 71, 79); transform-origin: 287.925px 158.575px; transform: rotate(-0.15deg);" class="animable" id="elnwpr7gw4al"></rect></g><g id="freepik--u5Zjqx--inject-20" class="animable" style="transform-origin: 330.37px 164.275px;"><path d="M331.48,171.68l-.66-.66c-.13-.13-.26-.25-.38-.38a9,9,0,0,0,0-12.82l.37-.36.66-.66s0,0,0,0h0l0,.05c.25.28.51.55.75.84a10.39,10.39,0,0,1,1.24,2,9.85,9.85,0,0,1,.86,2.57c.08.43.12.86.17,1.29,0,.15,0,1.1,0,1.13,0,.29,0,.59-.06.88a10,10,0,0,1-.57,2.36,9.33,9.33,0,0,1-.75,1.6,9.54,9.54,0,0,1-1.07,1.53c-.2.24-.42.47-.63.7Z" style="fill: rgb(255, 255, 255); transform-origin: 332.465px 164.275px;" id="elis1ogyzsyy" class="animable"></path><path d="M328.35,159.93l1-1.05a7.55,7.55,0,0,1,0,10.7l-1-1.05a6.08,6.08,0,0,0,0-8.6Z" style="fill: rgb(255, 255, 255); transform-origin: 329.961px 164.23px;" id="elo8pdhzs19eb" class="animable"></path><path d="M327.3,167.48l-1.05-1a3.06,3.06,0,0,0,.92-2.2,3.12,3.12,0,0,0-.92-2.2l1-1.05A4.58,4.58,0,0,1,327.3,167.48Z" style="fill: rgb(255, 255, 255); transform-origin: 327.427px 164.255px;" id="el1p7hhyt37xx" class="animable"></path></g><path d="M160.14,176.64c-1,15-1,45.76,6,54.44,9.1,11.4,33.8,17.61,41.11,19.47,3.18.81,9.82-20,7.87-23s-27.44-8.35-29.49-10-9.69-29.52-13.17-41.76C168,160.41,161,164,160.14,176.64Z" style="fill: rgb(173, 99, 89); transform-origin: 187.569px 208.108px;" id="el0jy5vyiywz3h" class="animable"></path><path d="M199.21,247.8c8.54,4.2,18.91,9.94,29.62,9.14a5.31,5.31,0,0,0,3.23-1.31c4.81-.27,6.12-2.62,6.12-2.62,4.4-1.63,5.41-4.22,5.41-4.22s5.64-.39,6-3.84c.38-3.86-7.61-2.56-12.44-4.54-11.07-4.52-25.55-14-28.61-15.67Z" style="fill: rgb(173, 99, 89); transform-origin: 224.407px 240.878px;" id="elgfmqatp9kr" class="animable"></path><path d="M222.18,243.83a79,79,0,0,0,9.92,3.41,77.93,77.93,0,0,0,11.4,1.45.1.1,0,0,1,0,.19,40.77,40.77,0,0,1-21.38-4.9C222,243.89,222,243.76,222.18,243.83Z" style="fill: rgb(38, 50, 56); transform-origin: 232.803px 246.368px;" id="elg82lk3npqj" class="animable"></path><path d="M218.48,250.11c3.27,1.06,9,2.88,19.7,2.78,0,0,0,.06,0,.06a36.44,36.44,0,0,1-19.76-2.68C218.23,250.19,218.26,250,218.48,250.11Z" style="fill: rgb(38, 50, 56); transform-origin: 228.237px 251.698px;" id="el26s2czfccnz" class="animable"></path><path d="M216.55,253.53c5.62,1.58,9.37,1.87,15.49,2.08,0,0,0,.06,0,.06-7,.49-9.57-.12-15.57-2C216.27,253.65,216.34,253.47,216.55,253.53Z" style="fill: rgb(38, 50, 56); transform-origin: 224.196px 254.675px;" id="el65uvyphhcw" class="animable"></path><path d="M224.12,234.12c-1.21-1.16-.61-1.8,2.36-1.51s14.44,4,15.39-.14-15.33-9.07-20.31-9.18-13.05,1.45-13.05,1.45C211.48,226.34,218.33,230.91,224.12,234.12Z" style="fill: rgb(173, 99, 89); transform-origin: 225.21px 228.85px;" id="elm34x0nyy1jm" class="animable"></path><path d="M158.29,200.16l21.54-4.66s-4.56-16.13-8.14-24.18-10.09-10.94-12.21,2.35C157.68,184.94,158.29,200.16,158.29,200.16Z" style="fill: rgb(38, 50, 56); transform-origin: 169.01px 182.326px;" id="el04py1jd8875x" class="animable"></path></g><g id="freepik--Bag--inject-20" class="animable" style="transform-origin: 395.32px 391.358px;"><polygon points="351.75 446.2 438.89 446.2 426.18 357.44 364.45 357.44 351.75 446.2" style="fill: #4833C4; transform-origin: 395.32px 401.82px;" id="elmuh6hkdzdpc" class="animable"></polygon><g id="elxxp7uya7ujs"><polygon points="364.45 357.44 374.13 446.2 351.75 446.2 364.45 357.44" style="fill: rgb(38, 50, 56); opacity: 0.1; transform-origin: 362.94px 401.82px;" class="animable" id="el9zdbqbcqm3o"></polygon></g><path d="M408.34,363.66c0-.08-1.59-7.52-3.27-15-1.41-6.27-7.63-9.15-12.83-8.3-1.84.3-7.77,1.86-7,9.53.88,8.81,1.56,13.07,1.57,13.11l-3.66.6c0-.18-.71-4.4-1.61-13.34-.71-7.13,3.26-12.46,10.11-13.56s15.15,2.75,17,11.15c1.69,7.53,3.26,15,3.28,15.07Z" style="fill: rgb(38, 50, 56); transform-origin: 396.694px 350.088px;" id="eldfom82nsqw" class="animable"></path><path d="M373,445.52c-2-.91-3.94-1.93-5.88-2.95s-3.84-2.11-5.73-3.22l.5,0c-1.49,1.09-3,2.16-4.52,3.18s-3.06,2.06-4.65,3c1.38-1.23,2.81-2.4,4.25-3.55s2.9-2.27,4.38-3.37l.24-.18.26.15q2.85,1.62,5.65,3.35C369.31,443.08,371.16,444.25,373,445.52Z" style="fill: rgb(255, 255, 255); transform-origin: 362.86px 441.98px;" id="el6xc2zhf3th2" class="animable"></path><path d="M361.58,439c0-5.68.1-11.35.22-17s.32-11.33.47-17,.42-11.33.69-17l.42-8.5c.17-2.83.31-5.66.51-8.49,0,2.84,0,5.67-.06,8.51l-.16,8.5c-.12,5.67-.32,11.34-.47,17s-.42,11.34-.69,17S362,433.3,361.58,439Z" style="fill: rgb(255, 255, 255); transform-origin: 362.735px 405.005px;" id="elhieeorwqv" class="animable"></path><path d="M406.46,363.27a3.7,3.7,0,1,0,3.69-3.7A3.7,3.7,0,0,0,406.46,363.27Z" style="fill: rgb(38, 50, 56); transform-origin: 410.16px 363.27px;" id="el97z3v7x0cop" class="animable"></path><path d="M381.56,363.27a3.7,3.7,0,1,0,3.7-3.7A3.7,3.7,0,0,0,381.56,363.27Z" style="fill: rgb(38, 50, 56); transform-origin: 385.26px 363.27px;" id="elupjbkphv29s" class="animable"></path></g><g id="freepik--Icon--inject-20" class="animable" style="transform-origin: 405.128px 184.43px;"><g id="freepik--u5zjqx--inject-20" class="animable" style="transform-origin: 405.128px 184.43px;"><path d="M413.27,241.49l-5.06-5.1-2.9-2.89c13.28-13.69,20.36-30,20.37-49.06s-7.06-35.39-20.43-49.18c.95-.9,1.93-1.81,2.88-2.75l5.05-5a.83.83,0,0,0,.09-.16h.12c.11.13.2.26.31.38,1.9,2.14,3.88,4.23,5.7,6.44a79.35,79.35,0,0,1,16.14,34.65c.6,3.26.9,6.58,1.31,9.87.14,1.12.16,8.41.14,8.64-.16,2.24-.26,4.49-.5,6.72a76.85,76.85,0,0,1-4.33,18.12,79.46,79.46,0,0,1-5.73,12.26,77.79,77.79,0,0,1-8.2,11.7c-1.56,1.83-3.22,3.59-4.84,5.38Z" style="fill: #4833C4; transform-origin: 421.123px 184.43px;" id="el99o5wnljb8t" class="animable"></path><path d="M389.29,151.43c2.68-2.69,5.3-5.33,8-8.05,9,9.17,14.73,20,16.45,32.76,2.58,19.05-3.21,35.41-16.33,49.28l-8-8.09c8.84-9.11,13.62-20.08,13.61-32.94S398.18,160.61,389.29,151.43Z" style="fill: #4833C4; transform-origin: 401.815px 184.4px;" id="el8wjra87l3da" class="animable"></path><path d="M381.26,209.28l-8-8a23.8,23.8,0,0,0,0-33.76l8-8C394.56,172.25,395.62,195.18,381.26,209.28Z" style="fill: #4833C4; transform-origin: 382.448px 184.4px;" id="elgpzjjqrvpd6" class="animable"></path></g></g><defs>     <filter id="active" height="200%">         <feMorphology in="SourceAlpha" result="DILATED" operator="dilate" radius="2"></feMorphology>                <feFlood flood-color="#32DFEC" flood-opacity="1" result="PINK"></feFlood>        <feComposite in="PINK" in2="DILATED" operator="in" result="OUTLINE"></feComposite>        <feMerge>            <feMergeNode in="OUTLINE"></feMergeNode>            <feMergeNode in="SourceGraphic"></feMergeNode>        </feMerge>    </filter>    <filter id="hover" height="200%">        <feMorphology in="SourceAlpha" result="DILATED" operator="dilate" radius="2"></feMorphology>                <feFlood flood-color="#ff0000" flood-opacity="0.5" result="PINK"></feFlood>        <feComposite in="PINK" in2="DILATED" operator="in" result="OUTLINE"></feComposite>        <feMerge>            <feMergeNode in="OUTLINE"></feMergeNode>            <feMergeNode in="SourceGraphic"></feMergeNode>        </feMerge>            <feColorMatrix type="matrix" values="0   0   0   0   0                0   1   0   0   0                0   0   0   0   0                0   0   0   1   0 "></feColorMatrix>    </filter></defs></svg>